<svg width="500" height="250" viewBox="0 0 500 250" fill="none" xmlns="http://www.w3.org/2000/svg">
<rect width="500" height="250" rx="20" fill="white"/>
<path fill-rule="evenodd" clip-rule="evenodd" d="M243.05 82.7155C240.844 84.5369 239.36 87.0842 238.865 89.9C238.007 95.7833 242.055 100.324 247.954 100.324C253.969 100.324 259.005 96.2764 259.868 90.6321C260.847 84.6197 256.791 79.9616 250.901 79.9616C248.039 79.9179 245.256 80.8943 243.05 82.7155ZM192.09 132.043C192.231 129.297 192.189 126.543 191.965 123.797H146.975L139.353 139.448H172.854C170.305 148.487 160.746 154.207 149.288 154.207C131.954 154.207 120.496 142.63 120.496 126.217C120.496 110.183 132.22 98.4803 147.883 98.4803C159.732 98.4803 166.739 104.576 170.317 111.711H189.8C185.079 93.6401 169.922 81.422 147.879 81.422C121.639 81.422 102.407 100.506 102.407 126.213C102.407 152.166 121.389 171 149.288 170.954C174.901 170.954 191.069 152.781 192.09 132.039V132.043ZM208.9 82.8255L195.148 169.596H212.732L226.48 82.8255H208.904H208.9ZM228.125 169.6L237.551 109.796H255.132L245.709 169.596H228.128L228.125 169.6ZM333.596 82.8255H316.016L310.661 116.282C307.478 111.578 301.751 108.4 293.471 108.4C279.457 108.4 264.558 117.815 261.493 137.153C257.798 160.565 273.084 171 284.934 171C292.833 171 299.331 167.814 303.916 162.09L307.71 169.6H327.223L322.837 153.638L333.596 82.8255ZM295.123 123.668C301.876 123.668 309.138 129.775 307.478 140.464C305.697 151.916 297.034 155.732 290.915 155.732C282.894 155.732 277.038 148.859 278.561 139.061C279.966 129.775 286.715 123.668 295.127 123.668H295.123ZM396.786 145.426H351.815C353.729 153.058 359.08 156.87 366.463 156.87C373.22 156.87 376.778 155.216 379.205 151.525H395.13C391.309 165.394 378.696 170.985 366.847 170.985C347.865 170.985 335.514 157.621 335.514 139.679C335.514 121.87 348.248 108.385 366.338 108.385C384.427 108.385 396.918 121.889 396.918 139.698C396.918 142.118 396.918 143.006 396.786 145.426ZM351.686 133.716H380.876C379.729 127.229 373.611 122.647 366.349 122.647C358.693 122.647 353.372 127.101 351.689 133.716H351.686Z" fill="black"/>
</svg>
